REM DIRINDEX 1\5,1\2\6,1\2\7,1\3\8,1\3\9,1\3\10,1\3\11,1\4\12,1\4\13,1\4\14
REM DIRNAME cjc043,folder01,folder02,folder03,folder04,folder05,folder06,folder07,folder08,folder09,folder10,folder11,folder12,folder13
TITLE ""
FILE "5Q_t_539-565.mp3" MP3
  TRACK 01 AUDIO
    TITLE "5:cjc043_1510"
    INDEX 01 00:00:00
  TRACK 02 AUDIO
    TITLE "0:"
    INDEX 01 00:02:67
  TRACK 03 AUDIO
    TITLE "6:cjc043_1511"
    INDEX 01 00:03:51
  TRACK 04 AUDIO
    TITLE "0:"
    INDEX 01 00:04:46
  TRACK 05 AUDIO
    TITLE "7:cjc043_1512"
    INDEX 01 00:05:24
  TRACK 06 AUDIO
    TITLE "0:"
    INDEX 01 00:06:37
  TRACK 07 AUDIO
    TITLE "6:cjc043_1513"
    INDEX 01 00:07:19
  TRACK 08 AUDIO
    TITLE "0:"
    INDEX 01 00:08:19
  TRACK 09 AUDIO
    TITLE "7:cjc043_1514"
    INDEX 01 00:09:02
  TRACK 10 AUDIO
    TITLE "0:"
    INDEX 01 00:10:18
  TRACK 11 AUDIO
    TITLE "6:cjc043_1515"
    INDEX 01 00:10:70
  TRACK 12 AUDIO
    TITLE "0:"
    INDEX 01 00:11:64
  TRACK 13 AUDIO
    TITLE "7:cjc043_1516"
    INDEX 01 00:12:44
  TRACK 14 AUDIO
    TITLE "0:"
    INDEX 01 00:13:59
  TRACK 15 AUDIO
    TITLE "6:cjc043_1517"
    INDEX 01 00:14:39
  TRACK 16 AUDIO
    TITLE "0:"
    INDEX 01 00:15:52
  TRACK 17 AUDIO
    TITLE "7:cjc043_1518"
    INDEX 01 00:16:32
  TRACK 18 AUDIO
    TITLE "0:"
    INDEX 01 00:17:61
  TRACK 19 AUDIO
    TITLE "6:cjc043_1519"
    INDEX 01 00:18:42
  TRACK 20 AUDIO
    TITLE "0:"
    INDEX 01 00:19:38
  TRACK 21 AUDIO
    TITLE "7:cjc043_1520"
    INDEX 01 00:20:18
  TRACK 22 AUDIO
    TITLE "0:"
    INDEX 01 00:22:48
  TRACK 23 AUDIO
    TITLE "6:cjc043_1521"
    INDEX 01 00:23:28
  TRACK 24 AUDIO
    TITLE "0:"
    INDEX 01 00:24:31
  TRACK 25 AUDIO
    TITLE "7:cjc043_1522"
    INDEX 01 00:25:07
  TRACK 26 AUDIO
    TITLE "0:"
    INDEX 01 00:27:41
  TRACK 27 AUDIO
    TITLE "6:cjc043_1523"
    INDEX 01 00:28:15
  TRACK 28 AUDIO
    TITLE "0:"
    INDEX 01 00:29:07
  TRACK 29 AUDIO
    TITLE "7:cjc043_1524"
    INDEX 01 00:29:64
  TRACK 30 AUDIO
    TITLE "0:"
    INDEX 01 00:32:19
  TRACK 31 AUDIO
    TITLE "6:cjc043_1525"
    INDEX 01 00:33:05
  TRACK 32 AUDIO
    TITLE "0:"
    INDEX 01 00:34:20
  TRACK 33 AUDIO
    TITLE "7:cjc043_1526"
    INDEX 01 00:35:00
  TRACK 34 AUDIO
    TITLE "0:"
    INDEX 01 00:37:73
  TRACK 35 AUDIO
    TITLE "6:cjc043_1527"
    INDEX 01 00:38:57
  TRACK 36 AUDIO
    TITLE "0:"
    INDEX 01 00:39:51
  TRACK 37 AUDIO
    TITLE "7:cjc043_1528"
    INDEX 01 00:40:28
  TRACK 38 AUDIO
    TITLE "0:"
    INDEX 01 00:41:28
  TRACK 39 AUDIO
    TITLE "6:cjc043_1529"
    INDEX 01 00:42:10
  TRACK 40 AUDIO
    TITLE "0:"
    INDEX 01 00:43:11
  TRACK 41 AUDIO
    TITLE "7:cjc043_1530"
    INDEX 01 00:43:62
  TRACK 42 AUDIO
    TITLE "0:"
    INDEX 01 00:44:69
  TRACK 43 AUDIO
    TITLE "6:cjc043_1531"
    INDEX 01 00:45:49
  TRACK 44 AUDIO
    TITLE "0:"
    INDEX 01 00:46:47
  TRACK 45 AUDIO
    TITLE "7:cjc043_1532"
    INDEX 01 00:47:21
  TRACK 46 AUDIO
    TITLE "0:"
    INDEX 01 00:48:22
  TRACK 47 AUDIO
    TITLE "6:cjc043_1533"
    INDEX 01 00:49:02
  TRACK 48 AUDIO
    TITLE "0:"
    INDEX 01 00:49:74
  TRACK 49 AUDIO
    TITLE "7:cjc043_1534"
    INDEX 01 00:50:50
  TRACK 50 AUDIO
    TITLE "0:"
    INDEX 01 00:51:73
  TRACK 51 AUDIO
    TITLE "6:cjc043_1535"
    INDEX 01 00:52:53
  TRACK 52 AUDIO
    TITLE "0:"
    INDEX 01 00:53:57
  TRACK 53 AUDIO
    TITLE "7:cjc043_1536"
    INDEX 01 00:54:38
  TRACK 54 AUDIO
    TITLE "0:"
    INDEX 01 00:55:51
  TRACK 55 AUDIO
    TITLE "6:cjc043_1537"
    INDEX 01 00:56:31
  TRACK 56 AUDIO
    TITLE "0:"
    INDEX 01 00:57:25
  TRACK 57 AUDIO
    TITLE "7:cjc043_1538"
    INDEX 01 00:58:09
  TRACK 58 AUDIO
    TITLE "0:"
    INDEX 01 00:59:20
  TRACK 59 AUDIO
    TITLE "6:cjc043_1539"
    INDEX 01 01:00:06
  TRACK 60 AUDIO
    TITLE "0:"
    INDEX 01 01:00:72
  TRACK 61 AUDIO
    TITLE "7:cjc043_1540"
    INDEX 01 01:01:52
  TRACK 62 AUDIO
    TITLE "0:"
    INDEX 01 01:02:67
  TRACK 63 AUDIO
    TITLE "6:cjc043_1541"
    INDEX 01 01:03:53
  TRACK 64 AUDIO
    TITLE "0:"
    INDEX 01 01:04:60
  TRACK 65 AUDIO
    TITLE "7:cjc043_1542"
    INDEX 01 01:05:38
  TRACK 66 AUDIO
    TITLE "0:"
    INDEX 01 01:06:71
  TRACK 67 AUDIO
    TITLE "6:cjc043_1543"
    INDEX 01 01:07:51
  TRACK 68 AUDIO
    TITLE "0:"
    INDEX 01 01:08:38
  TRACK 69 AUDIO
    TITLE "7:cjc043_1544"
    INDEX 01 01:09:20
  TRACK 70 AUDIO
    TITLE "0:"
    INDEX 01 01:10:26
  TRACK 71 AUDIO
    TITLE "6:cjc043_1545"
    INDEX 01 01:11:07
  TRACK 72 AUDIO
    TITLE "0:"
    INDEX 01 01:12:11
  TRACK 73 AUDIO
    TITLE "7:cjc043_1546"
    INDEX 01 01:12:68
  TRACK 74 AUDIO
    TITLE "0:"
    INDEX 01 01:14:02
  TRACK 75 AUDIO
    TITLE "6:cjc043_1547"
    INDEX 01 01:14:57
  TRACK 76 AUDIO
    TITLE "0:"
    INDEX 01 01:15:44
  TRACK 77 AUDIO
    TITLE "7:cjc043_1548"
    INDEX 01 01:16:20
  TRACK 78 AUDIO
    TITLE "0:"
    INDEX 01 01:17:26
  TRACK 79 AUDIO
    TITLE "6:cjc043_1549"
    INDEX 01 01:18:11
  TRACK 80 AUDIO
    TITLE "0:"
    INDEX 01 01:19:11
  TRACK 81 AUDIO
    TITLE "7:cjc043_1550"
    INDEX 01 01:19:72
  TRACK 82 AUDIO
    TITLE "0:"
    INDEX 01 01:21:27
  TRACK 83 AUDIO
    TITLE "6:cjc043_1551"
    INDEX 01 01:22:09
  TRACK 84 AUDIO
    TITLE "0:"
    INDEX 01 01:23:05
  TRACK 85 AUDIO
    TITLE "7:cjc043_1552"
    INDEX 01 01:23:62
  TRACK 86 AUDIO
    TITLE "0:"
    INDEX 01 01:25:19
  TRACK 87 AUDIO
    TITLE "6:cjc043_1553"
    INDEX 01 01:25:74
  TRACK 88 AUDIO
    TITLE "0:"
    INDEX 01 01:26:74
  TRACK 89 AUDIO
    TITLE "7:cjc043_1554"
    INDEX 01 01:27:48
  TRACK 90 AUDIO
    TITLE "0:"
    INDEX 01 01:29:07
  TRACK 91 AUDIO
    TITLE "6:cjc043_1555"
    INDEX 01 01:29:60
  TRACK 92 AUDIO
    TITLE "0:"
    INDEX 01 01:30:73
  TRACK 93 AUDIO
    TITLE "7:cjc043_1556"
    INDEX 01 01:31:59
  TRACK 94 AUDIO
    TITLE "0:"
    INDEX 01 01:33:34
  TRACK 95 AUDIO
    TITLE "6:cjc043_1557"
    INDEX 01 01:34:14
  TRACK 96 AUDIO
    TITLE "0:"
    INDEX 01 01:35:14
  TRACK 97 AUDIO
    TITLE "7:cjc043_1558"
    INDEX 01 01:35:65
  TRACK 98 AUDIO
    TITLE "0:"
    INDEX 01 01:39:04
  TRACK 99 AUDIO
    TITLE "6:cjc043_1559"
    INDEX 01 01:39:63
  TRACK 100 AUDIO
    TITLE "0:"
    INDEX 01 01:40:62
  TRACK 101 AUDIO
    TITLE "7:cjc043_1560"
    INDEX 01 01:41:36
  TRACK 102 AUDIO
    TITLE "0:"
    INDEX 01 01:44:50
  TRACK 103 AUDIO
    TITLE "6:cjc043_1561"
    INDEX 01 01:45:32
  TRACK 104 AUDIO
    TITLE "0:"
    INDEX 01 01:46:35
  TRACK 105 AUDIO
    TITLE "7:cjc043_1562"
    INDEX 01 01:47:17
  TRACK 106 AUDIO
    TITLE "0:"
    INDEX 01 01:50:23
  TRACK 107 AUDIO
    TITLE "6:cjc043_1563"
    INDEX 01 01:51:05
  TRACK 108 AUDIO
    TITLE "0:"
    INDEX 01 01:52:20
  TRACK 109 AUDIO
    TITLE "7:cjc043_1564"
    INDEX 01 01:53:02
  TRACK 110 AUDIO
    TITLE "0:"
    INDEX 01 01:57:02
